<?xml version="1.0" standalone="no"?>
<!DOCTYPE svg PUBLIC "-//W3C//DTD SVG 20010904//EN"
 "http://www.w3.org/TR/2001/REC-SVG-20010904/DTD/svg10.dtd">
<svg version="1.0" xmlns="http://www.w3.org/2000/svg"
 width="512.000000pt" height="512.000000pt" viewBox="0 0 512.000000 512.000000"
 preserveAspectRatio="xMidYMid meet">
<metadata>
Created by potrace 1.16, written by Peter Selinger 2001-2019
</metadata>
<g transform="translate(0.000000,512.000000) scale(0.100000,-0.100000)"
fill="#000000" stroke="none">
<path d="M2320 4214 c-106 -16 -247 -53 -322 -86 -50 -21 -52 -25 -33 -70 5
-13 -8 -24 -67 -54 -40 -20 -109 -60 -153 -89 -88 -58 -214 -169 -204 -179 4
-4 70 36 147 88 77 52 177 113 222 136 75 38 83 40 99 26 42 -38 53 -9 20 55
-11 23 -19 42 -17 44 13 11 167 59 251 77 135 29 449 32 567 5 98 -23 210 -58
210 -66 0 -4 -7 -16 -15 -27 -8 -10 -15 -24 -15 -29 0 -6 35 -23 78 -39 116
-43 195 -86 346 -186 76 -51 140 -90 142 -87 2 2 -27 34 -65 69 -86 82 -224
173 -336 224 -47 21 -84 43 -81 49 2 5 7 18 11 27 8 21 -28 41 -139 74 -176
53 -440 69 -646 38z"/>
<path d="M2500 4061 c0 -18 134 -162 155 -166 11 -2 43 -6 72 -10 91 -10 202
-43 300 -90 53 -25 104 -45 115 -45 23 0 85 -41 184 -122 403 -326 565 -850
419 -1353 -97 -332 -289 -550 -734 -832 -119 -76 -171 -98 -171 -74 0 6 73 60
163 122 200 138 310 223 405 313 l73 70 -43 22 -43 22 -55 -52 c-73 -69 -201
-167 -330 -253 -107 -71 -361 -223 -436 -261 l-41 -21 -164 102 c-397 249
-583 394 -731 569 -36 44 -38 49 -25 68 13 19 10 28 -29 106 -43 87 -94 224
-94 256 0 45 21 20 45 -54 55 -172 142 -307 296 -466 51 -52 125 -118 163
-147 92 -68 348 -238 457 -304 l87 -53 53 28 c101 50 424 256 534 339 189 142
337 310 420 475 131 260 138 587 19 880 -28 69 -30 103 -9 144 15 28 14 31
-21 85 -54 80 -224 252 -309 310 -40 28 -77 51 -83 51 -5 0 -16 -8 -26 -19
-27 -29 -107 -34 -169 -10 -121 48 -214 63 -377 62 -190 -1 -300 -26 -457
-103 -223 -110 -425 -309 -533 -525 -22 -44 -40 -73 -40 -64 0 29 32 123 61
181 30 60 36 84 19 73 -17 -10 -75 -133 -109 -228 -64 -183 -91 -387 -72 -552
16 -137 43 -232 101 -353 41 -85 48 -108 39 -124 -9 -16 -5 -28 18 -61 43 -64
188 -204 299 -288 159 -122 608 -409 639 -409 21 0 93 39 285 153 224 134 385
245 525 365 33 29 64 52 69 52 17 0 -46 -59 -149 -142 -153 -123 -692 -478
-726 -478 -28 0 -432 264 -614 400 -71 54 -166 132 -210 174 -74 71 -105 86
-105 53 0 -32 281 -293 510 -474 136 -107 417 -303 434 -303 7 0 84 45 171
100 87 55 165 100 171 100 19 0 64 -22 64 -31 0 -4 -7 -9 -15 -12 -8 -4 -100
-63 -204 -132 -104 -69 -196 -125 -203 -125 -16 0 -325 197 -464 296 -55 40
-142 110 -194 156 -111 99 -280 275 -280 292 0 6 7 19 14 29 13 16 10 23 -30
59 -95 87 -219 310 -268 480 -58 201 -61 431 -7 643 49 192 203 480 256 480
12 0 61 40 116 96 53 53 135 121 181 152 162 108 375 192 536 213 40 5 58 13
73 33 l21 26 -41 3 c-47 4 -191 -21 -265 -45 -38 -12 -53 -13 -70 -4 -57 31
-360 -123 -594 -300 l-65 -49 -44 40 c-35 33 -47 39 -62 31 -22 -12 -103 -105
-154 -177 -75 -105 -177 -360 -177 -441 0 -15 -13 -29 -42 -45 -67 -37 -70
-48 -64 -248 6 -198 24 -308 80 -475 93 -277 234 -490 511 -774 138 -141 357
-341 375 -341 4 0 13 7 20 15 11 13 19 10 59 -23 143 -118 573 -432 591 -432
18 0 415 283 415 296 0 8 45 46 100 85 132 93 132 93 151 74 20 -19 33 -11
178 120 266 241 529 570 645 808 115 237 155 403 156 652 0 197 -5 213 -81
246 -24 11 -44 26 -44 33 0 34 -55 200 -94 282 -72 151 -215 344 -255 344 -10
0 -28 -11 -41 -25 -13 -14 -26 -25 -30 -25 -4 0 -42 34 -84 75 -257 250 -578
386 -963 410 -65 4 -103 2 -103 -4z m-490 -222 c-64 -35 -304 -196 -370 -247
-68 -54 -209 -201 -245 -257 -176 -272 -236 -646 -153 -960 23 -89 95 -251
134 -302 14 -18 20 -33 15 -33 -18 0 -100 111 -138 188 -20 39 -40 72 -45 72
-11 0 -12 3 31 -118 113 -314 299 -562 648 -864 198 -170 632 -498 660 -498
26 0 253 161 253 179 0 10 59 58 153 123 83 59 188 136 232 172 44 35 82 63
84 61 1 -2 -4 -26 -13 -53 -14 -42 -28 -58 -98 -113 -45 -35 -116 -88 -156
-116 -89 -63 -83 -57 -86 -80 -2 -18 -347 -263 -370 -263 -12 0 -345 236 -361
256 -5 7 -55 46 -110 87 -55 41 -129 100 -164 131 -36 31 -70 55 -76 54 -29
-7 -332 289 -489 476 -230 274 -360 605 -382 975 -9 143 -1 195 32 210 14 6
33 11 43 11 15 0 20 11 26 46 21 140 83 306 158 423 51 78 133 171 151 171 6
0 24 -11 39 -25 26 -25 27 -27 12 -62 -8 -20 -13 -38 -11 -41 3 -2 38 27 78
65 133 125 299 240 458 317 106 52 143 61 60 15z m1404 -118 c48 -41 104 -95
126 -122 48 -56 100 -72 144 -44 35 23 52 11 125 -92 104 -146 170 -290 206
-455 16 -76 18 -78 46 -78 16 0 40 -7 54 -16 73 -48 23 -466 -86 -724 -106
-247 -274 -471 -598 -797 -83 -83 -151 -149 -151 -146 0 2 24 46 54 96 30 51
62 118 72 151 14 45 28 67 64 98 72 63 168 176 232 273 164 247 245 506 236
752 -4 101 -7 118 -36 175 -17 35 -41 108 -53 163 -26 123 -80 262 -148 379
-72 126 -116 181 -271 340 -146 150 -150 163 -16 47z m-911 -28 c-7 -2 -19 -2
-25 0 -7 3 -2 5 12 5 14 0 19 -2 13 -5z m269 -18 c37 -8 109 -30 159 -50 51
-21 100 -34 111 -31 23 5 102 -44 181 -114 45 -40 48 -46 42 -77 -5 -31 -1
-41 41 -91 99 -121 84 -142 -28 -38 -59 54 -90 76 -109 76 -15 0 -62 25 -115
60 -159 108 -298 150 -492 150 -301 0 -580 -161 -771 -444 -46 -68 -58 -79
-119 -108 -37 -18 -70 -34 -74 -36 -5 -2 -8 6 -8 17 0 13 15 29 45 47 35 20
53 40 74 83 43 84 98 152 194 240 187 170 365 255 582 277 60 6 74 11 95 35
23 27 29 29 75 23 28 -3 80 -12 117 -19z m-324 8 c-10 -2 -26 -2 -35 0 -10 3
-2 5 17 5 19 0 27 -2 18 -5z m-78 -13 c-34 -11 -60 -11 -35 0 11 5 29 8 40 8
16 0 15 -2 -5 -8z m-120 -35 c-35 -13 -66 -22 -68 -20 -5 5 100 44 118 44 8 0
-14 -11 -50 -24z m-100 -39 c0 -2 -7 -7 -16 -10 -8 -3 -12 -2 -9 4 6 10 25 14
25 6z m-41 -20 c-16 -15 -140 -95 -135 -87 7 10 125 91 134 91 3 0 3 -2 1 -4z
m636 -80 c83 -22 230 -96 292 -148 95 -78 171 -176 229 -293 59 -120 80 -198
90 -340 4 -56 12 -96 21 -107 16 -18 38 -225 29 -264 -9 -33 -67 -98 -175
-197 -269 -247 -442 -327 -706 -327 l-103 0 -37 50 c-21 28 -35 53 -32 56 3 3
43 0 88 -6 192 -27 408 24 569 133 110 75 230 218 230 274 0 11 9 41 20 66 40
89 61 196 61 307 0 239 -72 422 -231 581 -296 297 -747 300 -1074 7 -125 -111
-225 -266 -262 -403 -8 -33 -18 -112 -21 -176 -6 -124 10 -235 47 -329 10 -26
17 -50 14 -53 -12 -11 142 -211 215 -278 73 -69 186 -148 196 -137 3 2 -25 25
-63 51 -81 56 -168 143 -216 217 -40 61 -45 94 -17 110 17 9 28 0 80 -64 106
-130 203 -196 371 -253 52 -18 90 -32 84 -33 -28 -1 -177 45 -244 76 -89 41
-83 30 13 -23 57 -32 75 -48 108 -100 38 -61 39 -63 17 -63 -38 1 -200 73
-276 124 -93 61 -221 183 -277 261 -46 64 -118 205 -110 214 3 3 31 -20 63
-49 l57 -55 -56 59 c-50 51 -59 57 -77 47 -26 -14 -35 0 -52 83 -23 113 -6
348 30 415 4 8 32 29 61 46 42 24 68 51 115 119 197 283 470 434 764 422 58
-3 132 -12 165 -20z m-812 -46 c-18 -17 -36 -30 -40 -30 -8 1 58 59 67 60 3 0
-9 -14 -27 -30z m786 -35 c175 -45 336 -164 440 -324 137 -213 127 -565 -22
-789 -39 -57 -52 -70 -62 -62 -11 9 -6 24 29 78 88 140 111 224 111 412 -1
125 -4 154 -24 210 -66 189 -222 345 -419 418 -91 34 -257 42 -365 18 -256
-57 -477 -275 -543 -536 -27 -103 -22 -245 11 -355 15 -49 30 -98 33 -109 4
-16 2 -17 -16 -7 -55 29 -87 164 -79 338 7 172 38 265 132 398 105 148 267
263 429 305 90 24 264 26 345 5z m723 -139 c94 -136 156 -326 163 -501 l4
-100 -13 106 c-22 163 -55 287 -75 274 -5 -3 0 -33 10 -67 23 -74 45 -203 54
-313 6 -83 -10 -189 -39 -260 -17 -39 -42 -50 -30 -12 45 141 55 297 29 443
-20 111 -52 212 -83 264 -19 31 -20 36 -6 51 20 23 15 38 -51 146 -57 91 -35
73 37 -31z m-1620 42 c-7 -7 -12 -8 -12 -2 0 14 12 26 19 19 2 -3 -1 -11 -7
-17z m919 -107 l174 -109 3 -358 c2 -319 1 -359 -14 -375 -9 -10 -58 -44 -110
-75 l-93 -56 -3 -61 -3 -62 -69 -42 -70 -43 -60 33 c-59 33 -61 35 -64 78 -5
82 -7 85 -111 149 -54 33 -105 68 -115 78 -15 17 -16 55 -14 377 l3 358 174
108 c96 60 180 109 186 109 7 0 90 -49 186 -109z m566 -79 c30 -46 53 -85 50
-88 -2 -3 -17 17 -33 43 -25 43 -42 68 -129 183 -19 25 -15 22 15 -10 23 -25
67 -82 97 -128z m-1246 -85 c-13 -12 -20 -15 -16 -7 14 26 28 41 33 35 3 -3
-5 -16 -17 -28z m987 -13 c-4 -3 -12 5 -18 18 -12 22 -12 22 6 6 10 -10 15
-20 12 -24z m428 -181 c18 -97 15 -286 -6 -356 -20 -66 -23 -33 -6 64 23 136
21 186 -20 399 -4 24 -4 24 5 3 6 -13 18 -62 27 -110z m-1477 -13 c-18 -60
-21 -88 -16 -169 3 -59 13 -119 26 -156 15 -43 16 -54 6 -40 -22 28 -44 109
-51 185 -6 64 10 169 35 234 22 56 22 17 0 -54z m1108 4 c24 -88 22 -214 -6
-303 -12 -40 -24 -71 -27 -69 -2 3 5 40 16 83 30 118 25 237 -16 350 -5 15 -4
17 5 9 7 -6 19 -38 28 -70z m-1552 -8 c-18 -80 -23 -188 -13 -284 5 -57 7
-106 4 -109 -11 -11 -28 53 -37 137 -8 79 3 279 17 302 3 5 13 3 21 -3 10 -9
13 -22 8 -43z m558 -541 c34 -30 93 -71 130 -91 38 -20 66 -38 63 -41 -11 -11
-151 74 -208 128 -80 74 -67 77 15 4z m886 42 c-2 -2 -24 -19 -49 -39 -47 -37
-131 -88 -145 -88 -4 0 30 25 76 56 46 31 90 62 98 70 8 7 17 11 20 9 2 -3 2
-6 0 -8z m-1256 -196 c80 -110 216 -232 337 -304 25 -15 40 -27 34 -27 -39 0
-234 149 -313 240 -87 100 -172 236 -171 272 1 7 17 -18 37 -56 19 -39 54 -95
76 -125z m1657 67 c-185 -301 -518 -501 -825 -497 l-80 2 95 8 c191 17 319 59
461 150 113 74 253 212 324 321 56 86 76 99 25 16z m-311 -44 c-42 -51 -232
-171 -299 -189 -14 -3 16 14 65 39 50 25 124 72 165 105 79 64 91 71 69 45z
m-362 -210 c-3 -3 -12 -4 -19 -1 -8 3 -5 6 6 6 11 1 17 -2 13 -5z m-826 -81
c13 -16 12 -17 -3 -4 -10 7 -18 15 -18 17 0 8 8 3 21 -13z m133 -81 c58 -32
75 -59 30 -48 -28 7 -109 76 -89 76 6 0 32 -13 59 -28z m241 -31 c37 -12 92
-24 121 -27 30 -4 54 -11 54 -15 0 -11 4 -12 -82 6 -90 19 -170 44 -183 58 -7
7 -5 8 6 4 9 -3 47 -15 84 -26z m126 -101 l44 -9 -48 4 c-27 3 -56 10 -65 15
-14 9 -14 10 4 5 12 -3 42 -10 65 -15z m386 14 c-3 -3 -12 -4 -19 -1 -8 3 -5
6 6 6 11 1 17 -2 13 -5z m-40 -10 c-3 -3 -12 -4 -19 -1 -8 3 -5 6 6 6 11 1 17
-2 13 -5z m-44 -11 c-7 -2 -19 -2 -25 0 -7 3 -2 5 12 5 14 0 19 -2 13 -5z
m-105 -10 c-27 -2 -69 -2 -95 0 -27 2 -5 3 47 3 52 0 74 -1 48 -3z m-117 -65
l70 -31 65 32 c36 18 68 30 71 28 7 -7 -121 -77 -141 -77 -17 0 -146 67 -146
76 0 7 9 4 81 -28z"/>
<path d="M1281 3331 c-41 -57 -102 -202 -127 -298 -33 -132 -29 -172 5 -46 34
121 70 215 117 302 38 68 40 91 5 42z"/>
<path d="M3790 3329 c0 -3 18 -45 41 -93 42 -90 89 -254 89 -312 0 -18 5 -36
11 -40 9 -5 10 11 4 61 -9 89 -39 193 -79 279 -31 65 -65 120 -66 105z"/>
<path d="M2448 3097 c-154 -99 -144 -101 24 -5 l87 50 107 -61 c59 -34 109
-60 111 -57 6 6 -205 136 -219 135 -7 0 -57 -28 -110 -62z"/>
<path d="M2455 2891 l-90 -58 -3 -111 -3 -111 97 -57 97 -58 51 28 c28 16 75
44 104 62 l52 34 0 104 0 104 -99 61 c-54 34 -102 61 -107 60 -5 0 -49 -27
-99 -58z"/>
<path d="M2231 2484 c19 -23 308 -214 324 -214 18 0 286 174 314 204 14 14 20
26 15 26 -6 0 -66 -32 -135 -72 -68 -39 -140 -80 -159 -91 l-35 -20 -158 92
c-157 90 -192 106 -166 75z"/>
<path d="M2320 4053 c-92 -14 -238 -58 -228 -68 2 -2 26 3 53 11 28 9 100 26
160 39 92 19 102 32 15 18z"/>
</g>
</svg>